# xmcd
#
# Track frame offsets:
#	150
#	34426
#	52156
#	81026
#	111425
#	128467
#	158961
#
# Disc length: 2939 seconds
#
# Revision: 0
# Processed by: cddbd v1.5.2PL0 Copyright (c) Steve Scherf et al.
# Submitted via: EasyCDDAExtractor 9.0.0.1
#
DISCID=5b0b7907
DTITLE=Glenn Hughes - Black Horse Cermenate Italy 24-11-06 Disc 1
DYEAR=2006
DGENRE=Hard Rock
TTITLE0=Valiant Denial
TTITLE1=Orion
TTITLE2=Land Of The Livin' (Wonderland)
TTITLE3=Nights In White Satin
TTITLE4=Black Light
TTITLE5=Guitar Intro
TTITLE6=Mistreated
EXTD=
EXTT0=
EXTT1=
EXTT2=
EXTT3=
EXTT4=
EXTT5=
EXTT6=
PLAYORDER=
